<?xml version="1.0" encoding="utf-8"?>
<!-- Generator: Adobe Illustrator 24.1.3, SVG Export Plug-In . SVG Version: 6.00 Build 0)  -->
<svg version="1.1" id="Layer_1" xmlns="http://www.w3.org/2000/svg" xmlns:xlink="http://www.w3.org/1999/xlink" x="0px" y="0px"
	 viewBox="0 0 2646 768" style="enable-background:new 0 0 2646 768;" xml:space="preserve">
<style type="text/css">
	.st0{fill:#4D4E4E;}
	.st1{fill:#DC2B6B;}
</style>
<g>
	<g>
		<path class="st0" d="M483,409.17c0,0,3.03,92.47,97.02,93.98c0,0,84.13,0,93.23-93.98H483z"/>
		<path class="st0" d="M579.26,300.02c0,0-3.79-25.01,11.37-34.87c1.46-0.95,7.13,0.14,4.55,5.31c-0.76,1.52-3.03,3.03-5.31,5.31
			C587.19,278.45,580.77,288.66,579.26,300.02z"/>
		<path class="st1" d="M673.94,354.6c-1.2-30.34-26.16-54.57-56.79-54.57c-14.93,0-28.51,5.77-38.65,15.18
			c-10.14-9.42-23.72-15.18-38.65-15.18c-30.12,0-54.75,23.43-56.71,53.06H483v44.72l184.18,0.73v0.02H674V354.6H673.94z"/>
	</g>
	<g>
		<g>
			<path class="st1" d="M798.6,472.58c-13.94-7.67-24.87-18.31-32.79-31.92c-7.93-13.6-11.89-28.83-11.89-45.69
				c0-16.85,3.96-32.08,11.89-45.69c7.92-13.6,18.9-24.24,32.92-31.92c14.02-7.67,29.7-11.52,47.06-11.52
				c13.02,0,25.03,2.17,36.05,6.51c11.01,4.34,20.36,10.68,28.04,19.03l-11.77,11.77c-13.69-13.85-30.96-20.78-51.82-20.78
				c-13.85,0-26.45,3.17-37.8,9.51c-11.35,6.34-20.24,15.02-26.66,26.03c-6.43,11.01-9.64,23.37-9.64,37.05
				c0,13.69,3.21,26.03,9.64,37.05c6.42,11.01,15.31,19.69,26.66,26.04c11.35,6.34,23.95,9.51,37.8,9.51
				c21.03,0,38.3-7.01,51.82-21.03l11.77,11.77c-7.68,8.35-17.07,14.73-28.16,19.15c-11.1,4.42-23.16,6.63-36.17,6.63
				C828.18,484.1,812.53,480.26,798.6,472.58z"/>
			<path class="st1" d="M1037.04,362.81c9.18,8.6,13.77,21.32,13.77,38.18v81.61h-17.02v-20.53c-4.01,6.84-9.89,12.18-17.65,16.02
				c-7.76,3.84-16.98,5.76-27.66,5.76c-14.69,0-26.37-3.5-35.05-10.51c-8.68-7.01-13.02-16.27-13.02-27.79
				c0-11.18,4.04-20.19,12.14-27.04c8.09-6.84,20.99-10.26,38.68-10.26h41.81v-8.01c0-11.35-3.17-19.98-9.51-25.91
				c-6.34-5.92-15.61-8.89-27.79-8.89c-8.35,0-16.36,1.38-24.03,4.13c-7.68,2.75-14.27,6.55-19.78,11.39l-8.01-13.27
				c6.67-5.67,14.68-10.05,24.03-13.14c9.34-3.09,19.19-4.63,29.54-4.63C1014.68,349.92,1027.86,354.22,1037.04,362.81z
				 M1017.01,462.95c7.17-4.59,12.52-11.22,16.02-19.9v-21.53h-41.3c-22.53,0-33.79,7.85-33.79,23.53c0,7.68,2.92,13.73,8.76,18.15
				c5.84,4.42,14.02,6.63,24.53,6.63C1001.24,469.83,1009.84,467.54,1017.01,462.95z"/>
			<path class="st1" d="M1111.51,479.22c-9.76-3.09-17.4-6.97-22.91-11.64l8.01-14.02c5.51,4.34,12.43,7.89,20.78,10.64
				c8.34,2.75,17.02,4.13,26.03,4.13c12.02,0,20.9-1.88,26.66-5.63s8.64-9.05,8.64-15.9c0-4.84-1.59-8.64-4.76-11.39
				c-3.17-2.75-7.18-4.84-12.02-6.26c-4.84-1.42-11.27-2.79-19.28-4.13c-10.68-2-19.28-4.04-25.78-6.13
				c-6.51-2.08-12.06-5.63-16.65-10.64c-4.59-5.01-6.88-11.93-6.88-20.78c0-11.01,4.59-20.03,13.77-27.04
				c9.18-7.01,21.94-10.51,38.3-10.51c8.51,0,17.02,1.13,25.53,3.38s15.52,5.22,21.03,8.89l-7.76,14.27
				c-10.85-7.51-23.78-11.27-38.8-11.27c-11.35,0-19.9,2-25.66,6.01c-5.76,4.01-8.64,9.26-8.64,15.77c0,5.01,1.63,9.01,4.88,12.02
				c3.25,3,7.3,5.22,12.14,6.63c4.84,1.42,11.51,2.88,20.03,4.38c10.51,2,18.94,4.01,25.28,6.01c6.34,2,11.77,5.43,16.27,10.26
				c4.51,4.84,6.76,11.52,6.76,20.03c0,11.51-4.8,20.65-14.39,27.41c-9.6,6.76-22.91,10.14-39.93,10.14
				C1131.5,483.85,1121.28,482.31,1111.51,479.22z"/>
			<path class="st1" d="M1343.57,364.32c9.76,9.6,14.64,23.57,14.64,41.93v76.35h-17.77V408c0-13.68-3.42-24.11-10.26-31.29
				c-6.84-7.17-16.61-10.76-29.29-10.76c-14.19,0-25.41,4.22-33.67,12.64c-8.26,8.43-12.39,20.07-12.39,34.92v69.09h-17.77V296.85
				h17.77v77.1c4.84-7.67,11.52-13.6,20.03-17.77c8.51-4.17,18.27-6.26,29.29-6.26C1320.67,349.92,1333.81,354.72,1343.57,364.32z"
				/>
		</g>
		<g>
			<path class="st0" d="M1510.44,358.31c10.01,5.59,17.86,13.48,23.53,23.66c5.67,10.18,8.51,21.78,8.51,34.8
				c0,13.02-2.84,24.62-8.51,34.8c-5.68,10.18-13.52,18.11-23.53,23.78c-10.01,5.68-21.2,8.51-33.54,8.51
				c-11.01,0-20.9-2.33-29.66-7.01c-8.76-4.67-15.81-11.43-21.15-20.28v26.03h-17.02V296.85h17.77v79.11
				c5.51-8.51,12.56-14.98,21.15-19.4c8.59-4.42,18.23-6.63,28.91-6.63C1489.24,349.92,1500.42,352.72,1510.44,358.31z
				 M1500.67,461.7c7.51-4.26,13.39-10.3,17.65-18.15c4.26-7.84,6.38-16.77,6.38-26.79c0-10.01-2.13-18.94-6.38-26.79
				c-4.25-7.84-10.14-13.89-17.65-18.15c-7.51-4.26-15.86-6.38-25.03-6.38c-9.35,0-17.73,2.13-25.16,6.38
				c-7.43,4.26-13.27,10.31-17.52,18.15c-4.26,7.85-6.38,16.77-6.38,26.79c0,10.01,2.13,18.94,6.38,26.79
				c4.26,7.85,10.1,13.89,17.52,18.15c7.42,4.25,15.81,6.38,25.16,6.38C1484.82,468.08,1493.16,465.95,1500.67,461.7z"/>
			<path class="st0" d="M1701.19,422.27h-110.15c1,13.69,6.26,24.74,15.77,33.17c9.51,8.43,21.53,12.64,36.05,12.64
				c8.18,0,15.69-1.46,22.53-4.38c6.84-2.92,12.77-7.22,17.77-12.89l10.01,11.51c-5.84,7.01-13.14,12.35-21.9,16.02
				c-8.76,3.67-18.4,5.51-28.91,5.51c-13.52,0-25.5-2.88-35.92-8.64c-10.43-5.76-18.57-13.73-24.41-23.91
				c-5.84-10.18-8.76-21.69-8.76-34.55c0-12.85,2.79-24.36,8.39-34.55c5.59-10.18,13.27-18.11,23.03-23.78
				c9.76-5.67,20.74-8.51,32.92-8.51c12.18,0,23.11,2.84,32.79,8.51c9.68,5.68,17.27,13.56,22.78,23.66
				c5.51,10.1,8.26,21.65,8.26,34.67L1701.19,422.27z M1605.69,377.33c-8.6,8.1-13.48,18.65-14.64,31.67h93.37
				c-1.17-13.02-6.05-23.57-14.64-31.67c-8.6-8.09-19.32-12.14-32.17-12.14C1624.92,365.19,1614.28,369.24,1605.69,377.33z"/>
			<path class="st0" d="M1781.17,356.68c8.26-4.51,18.48-6.76,30.67-6.76v17.27l-4.26-0.25c-13.85,0-24.7,4.26-32.54,12.77
				c-7.85,8.51-11.77,20.45-11.77,35.8v67.09h-17.77V350.92h17.02v25.78C1766.69,367.86,1772.9,361.19,1781.17,356.68z"/>
			<path class="st0" d="M1887.3,356.68c8.26-4.51,18.48-6.76,30.67-6.76v17.27l-4.26-0.25c-13.85,0-24.7,4.26-32.54,12.77
				c-7.85,8.51-11.77,20.45-11.77,35.8v67.09h-17.77V350.92h17.02v25.78C1872.82,367.86,1879.04,361.19,1887.3,356.68z"/>
			<path class="st0" d="M2074.17,350.92l-65.84,147.45c-5.34,12.35-11.52,21.11-18.52,26.29c-7.01,5.17-15.44,7.76-25.28,7.76
				c-6.34,0-12.27-1-17.77-3c-5.51-2-10.26-5.01-14.27-9.01l8.26-13.27c6.67,6.67,14.68,10.01,24.03,10.01
				c6.01,0,11.14-1.67,15.4-5.01c4.26-3.34,8.22-9.01,11.89-17.02l5.76-12.77l-58.83-131.42h18.53l49.57,111.9l49.57-111.9H2074.17z
				"/>
		</g>
	</g>
</g>
</svg>
