<?xml version="1.0" encoding="utf-8"?>
<!-- Generator: Adobe Illustrator 24.1.3, SVG Export Plug-In . SVG Version: 6.00 Build 0)  -->
<svg version="1.1" id="Layer_1" xmlns="http://www.w3.org/2000/svg" xmlns:xlink="http://www.w3.org/1999/xlink" x="0px" y="0px"
	 viewBox="0 0 2646 768" style="enable-background:new 0 0 2646 768;" xml:space="preserve">
<style type="text/css">
	.st0{fill:#4D4E4E;}
	.st1{fill:#DC2B6B;}
	.st2{font-family:'Montserrat-Regular';}
	.st3{font-size:250.3328px;}
	.st4{letter-spacing:7;}
</style>
<g>
	<g>
		<path class="st0" d="M483,409.17c0,0,3.03,92.47,97.02,93.98c0,0,84.13,0,93.23-93.98H483z"/>
		<path class="st0" d="M579.26,300.02c0,0-3.79-25.01,11.37-34.87c1.46-0.95,7.13,0.14,4.55,5.31c-0.76,1.52-3.03,3.03-5.31,5.31
			C587.19,278.45,580.77,288.66,579.26,300.02z"/>
		<path class="st1" d="M673.94,354.6c-1.2-30.34-26.16-54.57-56.79-54.57c-14.93,0-28.51,5.77-38.65,15.18
			c-10.14-9.42-23.72-15.18-38.65-15.18c-30.12,0-54.75,23.43-56.71,53.06H483v44.72l184.18,0.73v0.02H674V354.6H673.94z"/>
	</g>
	<g>
		<text transform="matrix(1 0 0 1 740.8984 482.5974)" class="st1 st2 st3 st4">Cash</text>
		<text transform="matrix(1 0 0 1 1384.2673 482.5975)" class="st0 st2 st3 st4">berry</text>
	</g>
</g>
</svg>
