<?xml version="1.0" encoding="utf-8"?>
<!-- Generator: Adobe Illustrator 22.1.0, SVG Export Plug-In . SVG Version: 6.00 Build 0)  -->
<svg version="1.1" id="Layer_1" xmlns="http://www.w3.org/2000/svg" xmlns:xlink="http://www.w3.org/1999/xlink" x="0px" y="0px"
	 viewBox="0 0 100 100" style="enable-background:new 0 0 100 100;" xml:space="preserve">
<style type="text/css">
	.st0{opacity:0.22;fill:#FFFFFF;}
	.st1{opacity:0.5;fill:#FFFFFF;}
	.st2{fill:#FFFFFF;}
</style>
<g>
	<circle class="st0" cx="71" cy="49.9" r="7.9"/>
	<circle class="st1" cx="71" cy="49.9" r="5.5"/>
	<circle class="st2" cx="71" cy="49.9" r="2.8"/>
	<path class="st2" d="M65.3,56.8c-0.4-0.3-1-0.3-1.3,0.2L41.6,85c-0.8-0.4-1.7-0.7-2.7-0.7c-3.2,0-5.7,2.6-5.7,5.7s2.6,5.7,5.7,5.7
		s5.7-2.6,5.7-5.7c0-1.5-0.6-2.9-1.5-3.9l22.4-28C65.7,57.8,65.7,57.2,65.3,56.8z"/>
	<path class="st2" d="M88.3,24.5c-2.2,0-4,1.8-4,4c0,0.9,0.3,1.7,0.8,2.4l-8.7,10.8c-0.3,0.4-0.3,1,0.1,1.3c0.2,0.1,1.5,0.2,0.6,0.2
		c-0.3,0,0.6-0.1,0.7-0.4l8.7-10.8c0.5,0.2,1.1,0.4,1.7,0.4c2.2,0,4-1.8,4-4C92.3,26.3,90.5,24.5,88.3,24.5z"/>
	<path class="st2" d="M65.2,41.5l-22.1-29c0.5-0.7,0.8-1.5,0.8-2.4c0-2.2-1.8-4.1-4.1-4.1c-2.2,0-4.1,1.8-4.1,4.1s1.8,4.1,4.1,4.1
		c0.7,0,1.3-0.2,1.8-0.4l22,28.9c0.2,0.2,0.5,0.4,0.8,0.4c0.2,0,0.4-0.1,0.6-0.2C65.4,42.5,65.5,41.9,65.2,41.5z"/>
	<path class="st2" d="M89.3,65.3c-1,0-2,0.3-2.8,0.7l-7.7-10.2c-0.3-0.4-0.9-0.5-1.3-0.2c-0.4,0.3-0.5,0.9-0.2,1.3L85,67.3
		c-0.9,1-1.4,2.3-1.4,3.8c0,3.2,2.6,5.7,5.7,5.7c3.2,0,5.7-2.6,5.7-5.7C95,67.9,92.4,65.3,89.3,65.3z"/>
	<path class="st2" d="M7,42.3L7,42.3c1.2,0,2.1,0.9,2.1,2.1v0.7c1.5-2.2,3.3-3.2,5.6-3.2c1.2,0,2.3,0.3,3.2,1
		c0.9,0.7,1.6,1.6,1.9,2.9c0.7-1.3,1.5-2.2,2.6-2.9c1-0.7,2.2-1,3.6-1c1.4,0,2.6,0.5,3.7,1.6c1.1,1.1,1.7,3.1,1.7,6.2v8.9h0
		c-1.2,0-2.1-1-2.1-2.1v-6.7c0-1.5-0.1-2.6-0.3-3.3c-0.2-0.7-0.6-1.3-1.2-1.8s-1.4-0.7-2.4-0.7c-1,0-2,0.3-2.8,1
		c-0.9,0.7-1.5,1.5-1.8,2.6c-0.3,1-0.5,2.6-0.5,4.7v6.4h0c-1.1,0-2.1-0.9-2.1-2.1v-6.3c0-1.7-0.1-3-0.3-3.7
		c-0.2-0.7-0.6-1.4-1.2-1.9c-0.6-0.5-1.4-0.8-2.3-0.8c-0.9,0-1.8,0.3-2.6,0.8c-0.8,0.5-1.4,1.3-1.9,2.2s-0.7,2.5-0.7,4.7v4.8
		c0,1.2-0.9,2.1-2.1,2.1h0V42.3z"/>
	<path class="st2" d="M54.6,42.3v16.3h0c-1.1,0-2.1-0.9-2.1-2.1v-0.7c-1.9,2.2-4,3.3-6.4,3.3s-4.4-0.9-6.1-2.6
		c-1.7-1.7-2.5-3.8-2.5-6.1c0-2.3,0.9-4.4,2.5-6c1.7-1.7,3.6-2.5,5.9-2.5c2.7,0,4.8,1.1,6.5,3.4v-0.9C52.6,43.2,53.5,42.3,54.6,42.3
		L54.6,42.3z M52.7,50.5c0-1.9-0.6-3.4-1.9-4.7c-1.2-1.3-2.8-1.9-4.6-1.9c-1.8,0-3.3,0.7-4.6,2c-1.2,1.3-1.9,2.9-1.9,4.7
		c0,1.8,0.6,3.4,1.9,4.7c1.3,1.3,2.8,2,4.5,2c1.8,0,3.3-0.6,4.5-1.9C52.1,54,52.7,52.4,52.7,50.5z"/>
</g>
</svg>
